<svg id="Warstwa_1" data-name="Warstwa 1" xmlns="http://www.w3.org/2000/svg" viewBox="0 0 280 210"><title>Obszar roboczy 1</title><g id="_grupa_" data-name="&lt;grupa&gt;"><path id="_ścieżka_" data-name="&lt;ścieżka&gt;" d="M138,130.06h15l-.12-1.59c27.56-.56,41.4-3.12,39.06-6.38-5.26-7.3-69.68-7.14-67.16-12.81,1-2.28,10.08-4.12,24.73-3.93a236.29,236.29,0,0,1,24,1.66l3.82-2.05a253.14,253.14,0,0,0-26.42-1.81l-.15-1.87-8.9-.15-.27,2c-17.48.38-29.23,2.87-31.55,6.05-5.37,7.37,60.94,7.09,63.38,13,1.07,2.56-11.89,4.16-32.06,4.13a326,326,0,0,1-37-2.08l-10.67,2c11.89,1.49,27.85,2.24,44.55,2.32Z"/><path id="_ścieżka_złożona_" data-name="&lt;ścieżka złożona&gt;" d="M275,117.73c0-25.3-88.31-32-135-32S5,92.43,5,117.73V148.4c0,25.3,88.31,32,135,32s135-6.69,135-32c0-12.06-.09-24.78-.12-29.14A10.6,10.6,0,0,0,275,117.73Zm-225.8-14C73.4,98.74,105.65,96,140,96s66.6,2.76,90.8,7.76c27.72,5.73,34,12.18,34,14,0,0,0,0,0,0h-.13v.48c-1,2.31-8.32,8.19-33.82,13.46-24.2,5-56.45,7.76-90.8,7.76s-66.6-2.76-90.8-7.76c-27.72-5.73-34-12.18-34-14S21.48,109.48,49.2,103.74Zm206.49,31.67V155.1a87.24,87.24,0,0,1-10,3.59v-20C249.28,137.66,252.63,136.58,255.68,135.41ZM72.63,145.78v20.44c-5.83-.74-11.39-1.59-16.64-2.53v-20.3C61.37,144.3,67,145.09,72.63,145.78Zm-42-8.2v19.94c-2.38-.8-4.41-1.59-6.14-2.35V135.48Q27.41,136.59,30.64,137.59ZM15.24,148.4V131.17q1.47.86,3.12,1.66v19.05C16.05,150.3,15.24,149.05,15.24,148.4Zm21.55,11V139.34c4.11,1.08,8.48,2.05,13.06,2.94v20.24l-.65-.13C44.45,161.41,40.35,160.41,36.79,159.41ZM140,170.15A557.16,557.16,0,0,1,78.78,167V146.49A597.69,597.69,0,0,0,140,149.72c27.59,0,69.71-2.34,99.55-9.47v20.13c-2.65.67-5.55,1.34-8.75,2C206.6,167.4,174.35,170.15,140,170.15Zm121.83-18.39v-19q1.52-.75,2.88-1.55c0,5.18,0,11.26,0,17.2C264.76,149,264,150.23,261.83,151.76Z"/></g></svg>