<svg id="Warstwa_1" data-name="Warstwa 1" xmlns="http://www.w3.org/2000/svg" viewBox="0 0 280 210"><title>Obszar roboczy 1</title><path d="M108.83,27.11c.93-2.08,9.22-3.77,22.61-3.6A216.15,216.15,0,0,1,153.38,25l3.49-1.88a231.46,231.46,0,0,0-24.16-1.65l-.13-1.71-8.14-.13-.25,1.85c-16,.34-26.73,2.62-28.85,5.53-4.91,6.74,55.72,6.48,58,11.85,1,2.34-10.87,3.8-29.31,3.78a298.05,298.05,0,0,1-33.85-1.91l-9.75,1.81c10.87,1.37,25.47,2,40.73,2.12l-.18,1.39h13.71l-.11-1.45c25.2-.51,37.86-2.86,35.71-5.83C165.44,32.15,106.53,32.29,108.83,27.11Z"/><path d="M248.85,51.7c0-7.71-.07-14.53-.1-17.41a9.68,9.68,0,0,0,.11-1.41c0-23.14-80.74-29.25-123.43-29.25S2,9.75,2,32.88v28C2,69.84,14,76.22,31.13,80.7v8.72C16.44,94.18,9.28,100,9.28,107.09v28c0,6.16,5.72,11.11,14.92,15.06v27.86c0,23.14,80.74,29.25,123.43,29.25s123.43-6.11,123.43-29.25c0-11-.08-22.66-.11-26.65a9.7,9.7,0,0,0,.11-1.4c0-5.91-4.9-10.87-14.92-15.11,0-8.16,0-14.22-.08-17.71C269.28,112.89,278,107.12,278,99.52c0-11-.08-22.64-.11-26.64a9.7,9.7,0,0,0,.11-1.41C278,63.29,268.45,56.8,248.85,51.7ZM42.41,20.1C64.54,15.52,94,13,125.43,13s60.9,2.52,83,7.1c25.35,5.24,31,11.14,31,12.79,0,0,0,0,0,0h-.12s0,.18,0,.44c-.93,2.12-7.62,7.49-30.93,12.31-22.13,4.58-51.61,7.1-83,7.1s-60.9-2.52-83-7.1c-25.35-5.24-31-11.14-31-12.79S17.07,25.34,42.41,20.1ZM239.51,60.93c0,.58-.7,1.67-2.68,3.07V46.61q1.39-.69,2.63-1.41C239.49,49.93,239.51,55.5,239.51,60.93ZM231.21,49V67a79.78,79.78,0,0,1-9.13,3.29V52C225.35,51.11,228.41,50.12,231.21,49Zm15.53,61.13c-2.72.71-5.75,1.43-9.15,2.13-22.13,4.58-51.61,7.1-83,7.1-27.78,0-54-2-75-5.6V95.27c20.77,3.46,46.83,5.46,75,5.46,25.58,0,64.82-2.2,92.17-8.94Zm.05,25c0,.6-.76,1.76-2.94,3.25V121q.94-.45,1.8-.91l1.08-.26C246.76,123.45,246.79,128.62,246.79,135.13Zm-8.56-11.75v18a78.64,78.64,0,0,1-8,2.92V126C233.1,125.17,235.79,124.3,238.23,123.39Zm-13.65,4.1v18.39c-2.64.69-5.57,1.37-8.84,2-22.13,4.58-51.61,7.1-83,7.1-26.47,0-51.56-1.8-72-5.1V131.31c24.3,3.71,52.26,5,72,5C169,136.34,202,133,224.58,127.48ZM69.46,77.9V59.18a546.54,546.54,0,0,0,56,3c25.23,0,63.74-2.14,91-8.66V71.88c-2.42.62-5.08,1.23-8,1.83-22.13,4.58-51.61,7.1-83,7.1A509.47,509.47,0,0,1,69.46,77.9Zm-20.83-3V56.34c4.92.83,10,1.56,15.22,2.2V77.22C58.51,76.54,53.42,75.77,48.62,74.9ZM56,90v18.28c-2.62-.84-4.82-1.67-6.67-2.46v-18Q52.42,89,56,90Zm5.62,1.54c3.8,1,7.9,1.86,12.29,2.69v18.5l-2.36-.46c-3.72-.77-7-1.55-9.93-2.34ZM14.21,64.12c-2.11-1.46-2.85-2.59-2.85-3.19V45.17q1.34.78,2.85,1.52Zm11.24,5.15c-2.17-.74-4-1.46-5.62-2.15v-18q2.66,1,5.62,1.93ZM31.07,71V52.64c3.76,1,7.75,1.88,11.94,2.68V73.83l-.59-.12C38.07,72.82,34.32,71.9,31.07,71ZM43.71,85.51V103c-2.39-1.58-3.21-2.81-3.21-3.43V83.85C41.49,84.41,42.55,85,43.71,85.51Zm-21.89,53c-2.36-1.56-3.17-2.79-3.17-3.41V119.38q1.49.87,3.17,1.68Zm-3.17-31.46c0-1,2.48-4.13,12.49-7.76v.19c0,15.08,34.3,22.93,70,26.56-19.29-1.1-37-3.21-51.45-6.21C24.35,114.63,18.65,108.74,18.65,107.09Zm8.79,34.38v-18c2.23.83,4.62,1.62,7.14,2.36v18.28C31.75,143.18,29.39,142.3,27.44,141.47Zm9.09,39.85c-2.19-1.49-3-2.66-3-3.26V162.3q1.39.81,3,1.58Zm3.67-54c4.65,1.16,9.64,2.18,14.86,3.09V149c-1.83-.33-3.63-.68-5.36-1-3.54-.73-6.69-1.48-9.5-2.22Zm8.19,59.33c-2.44-.8-4.5-1.59-6.24-2.34v-18c2,.74,4,1.44,6.24,2.11Zm18.73,4.7-2.5-.49c-4-.83-7.53-1.68-10.61-2.52V170c4.11,1.05,8.51,2,13.11,2.85Zm22.94,3.5c-6.08-.71-11.88-1.53-17.32-2.46V173.78c5.6.91,11.42,1.69,17.32,2.35Zm153.72-7.22c-3.64,1.08-8,2.17-13.11,3.23-22.13,4.58-51.61,7.1-83,7.1a518.25,518.25,0,0,1-52-2.49V176.72c18.61,1.83,37.48,2.54,52,2.54,26.85,0,68.73-2.42,96.13-10ZM253.91,184c-1.3.59-2.8,1.2-4.52,1.83V167.6q2.37-.78,4.52-1.62Zm5.62-3.19V163.49q1.12-.57,2.13-1.16c0,4.73,0,10.3,0,15.73C261.71,178.58,261.13,179.53,259.53,180.76ZM261.71,150s0,0,0,0h-.12s0,.18,0,.44c-.92,2.11-7.6,7.49-30.93,12.31-22.13,4.58-51.61,7.1-83,7.1s-60.9-2.52-83-7.1c-12.13-2.51-19.75-5.16-24.41-7.44,27.36,6.8,66.82,9,92.51,9,37.07,0,102.83-4.61,119.5-21C259.86,146.59,261.71,149.26,261.71,150Zm-2.18-44c-2,.83-4.35,1.7-7.18,2.59V90.29c2.54-.73,4.94-1.52,7.18-2.35Zm5.62-2.86V85.6q1.83-.87,3.44-1.8c0,4.73,0,10.3,0,15.73C268.64,100.17,267.75,101.47,265.15,103.13Zm3.48-31.62h-.12s0,.18,0,.44c-.93,2.12-7.62,7.49-30.93,12.31-22.13,4.58-51.61,7.1-83,7.1-13.43,0-26-.46-37.48-1.25,2.91,0,5.71.07,8.35.07,42.4,0,122.32-6,123.41-28.78,15.95,4.46,19.79,8.79,19.79,10.08C268.64,71.49,268.63,71.5,268.63,71.51Z"/></svg>