<svg id="Warstwa_1" data-name="Warstwa 1" xmlns="http://www.w3.org/2000/svg" viewBox="0 0 280 210"><title>Obszar roboczy 1</title><g id="_grupa_" data-name="&lt;grupa&gt;"><path id="_ścieżka_" data-name="&lt;ścieżka&gt;" d="M138.53,97.74h14.94l-.12-1.58c27.46-.56,41.25-3.11,38.91-6.35C187,82.53,122.83,82.68,125.34,77c1-2.27,10-4.11,24.64-3.92a235.47,235.47,0,0,1,23.9,1.66l3.8-2a252.15,252.15,0,0,0-26.32-1.8l-.15-1.86-8.87-.15-.27,2c-17.42.37-29.12,2.85-31.43,6C105.3,84.31,171.36,84,173.8,89.88c1.06,2.55-11.85,4.15-31.94,4.12A324.82,324.82,0,0,1,105,91.93l-10.63,2c11.84,1.49,27.75,2.23,44.38,2.32Z"/><path id="_ścieżka_złożona_" data-name="&lt;ścieżka złożona&gt;" d="M274.88,87a10.56,10.56,0,0,0,.12-1.53c0-25.21-88-31.87-134.5-31.87S6,60.24,6,85.45V116a11.38,11.38,0,0,0,2.31,6.73A11.67,11.67,0,0,0,6,129.59v30.56C6,185.36,94,192,140.5,192S275,185.36,275,160.15c0-12-.09-24.68-.12-29a10.56,10.56,0,0,0,.12-1.53,11.67,11.67,0,0,0-2.31-6.85A11.38,11.38,0,0,0,275,116C275,104,274.91,91.32,274.88,87ZM16.2,116V98.84q1.46.85,3.1,1.66v19C17,117.9,16.2,116.65,16.2,116Zm9.23-12.87q2.9,1.1,6.12,2.1V125.1c-2.37-.8-4.39-1.59-6.12-2.34ZM37.67,107c4.09,1.07,8.45,2,13,2.93v20.17l-.64-.13c-4.73-1-8.81-2-12.36-3Zm19.13,4c5.36.91,10.92,1.7,16.58,2.39v20.36C67.57,133,62,132.17,56.8,131.24Zm22.7,3.1a595.58,595.58,0,0,0,61,3.22c27.49,0,69.45-2.33,99.19-9.43v20.06c-2.64.67-5.53,1.34-8.72,2-24.11,5-56.24,7.74-90.47,7.74a555.09,555.09,0,0,1-61-3.18Zm166.31-7.8c3.57-1,6.9-2.08,9.95-3.24v19.61a86.94,86.94,0,0,1-9.95,3.58Zm16.07-5.89q1.51-.75,2.87-1.54c0,5.16,0,11.22,0,17.14,0,.63-.76,1.82-2.92,3.35ZM50,71.51c24.11-5,56.24-7.73,90.47-7.73s66.35,2.75,90.47,7.73c27.62,5.71,33.83,12.13,33.83,13.93,0,0,0,0,0,0h-.13V86c-1,2.3-8.29,8.16-33.7,13.41-24.11,5-56.24,7.73-90.47,7.73S74.15,104.37,50,99.38C22.42,93.67,16.2,87.25,16.2,85.45S22.42,77.23,50,71.51Zm-33.81,57.9c24.53,14.28,87.41,18.46,124.27,18.46s99.75-4.18,124.27-18.46a.71.71,0,0,1,0,.17s0,0,0,0h-.13v.48c-1,2.3-8.29,8.16-33.7,13.41-24.11,5-56.24,7.73-90.47,7.73S74.15,148.51,50,143.52c-27.62-5.71-33.83-12.13-33.83-13.93A.72.72,0,0,1,16.23,129.42ZM255.76,147.2v19.61a87,87,0,0,1-9.95,3.58v-20C249.37,149.45,252.71,148.37,255.76,147.2ZM73.38,157.54V177.9c-5.81-.74-11.35-1.59-16.58-2.52V155.15C62.16,156.06,67.72,156.85,73.38,157.54Zm-41.83-8.17v19.86c-2.37-.8-4.39-1.59-6.12-2.34V147.28Q28.33,148.37,31.55,149.37ZM16.2,160.15V143q1.46.85,3.1,1.66v19C17,162,16.2,160.79,16.2,160.15Zm21.47,11v-20c4.09,1.07,8.45,2,13,2.93v20.17l-.64-.13C45.31,173.1,41.22,172.11,37.67,171.11Zm102.83,10.7a555.2,555.2,0,0,1-61-3.18v-20.4a595.58,595.58,0,0,0,61,3.22c27.49,0,69.45-2.33,99.19-9.43v20.06c-2.64.67-5.53,1.34-8.72,2C206.85,179.07,174.73,181.82,140.5,181.82Zm121.38-18.32V144.55q1.51-.75,2.87-1.54c0,5.16,0,11.22,0,17.14C264.8,160.78,264,162,261.88,163.49Z"/></g></svg>