<svg id="Warstwa_1" data-name="Warstwa 1" xmlns="http://www.w3.org/2000/svg" viewBox="0 0 280 210"><defs><style>.cls-1{fill:#020202;}</style></defs><title>Obszar roboczy 1</title><g id="_grupa_" data-name="&lt;grupa&gt;"><path id="_ścieżka_złożona_" data-name="&lt;ścieżka złożona&gt;" class="cls-1" d="M274,134.7a11.74,11.74,0,0,0-2.59-7.2,11,11,0,0,0,1.71-5.8c0-11.94-.09-24.52-.12-28.83a10.49,10.49,0,0,0,.12-1.51,11.59,11.59,0,0,0-2.29-6.8,11.3,11.3,0,0,0,2.29-6.69c0-11.94-.09-24.52-.12-28.83a10.48,10.48,0,0,0,.12-1.51c0-25-87.36-31.65-133.56-31.65S6,22.48,6,47.52V77.86a11.3,11.3,0,0,0,2.29,6.69A11.59,11.59,0,0,0,6,91.35v30.35a11.47,11.47,0,0,0,2.6,7.09,11.32,11.32,0,0,0-1.72,5.92V165c0,25,87.36,31.65,133.56,31.65S274,190.08,274,165c0-11.93-.09-24.5-.12-28.82A10.5,10.5,0,0,0,274,134.7Zm-10.26.52c-1,2.29-8.24,8.1-33.46,13.32-23.94,5-55.84,7.68-89.83,7.68s-65.89-2.73-89.83-7.68c-23.53-4.87-31.41-10.25-33.17-12.81,25.2,13.6,86.14,17.61,122.12,17.61,37,0,100.57-4.26,124.27-18.86a.83.83,0,0,1,0,.21s0,0,0,0h-.13Zm-8.85,17v19.47a86.33,86.33,0,0,1-9.88,3.56V155.41C248.55,154.42,251.86,153.35,254.89,152.19ZM73.79,162.45v20.22c-5.77-.74-11.27-1.57-16.46-2.51V160.08C62.65,161,68.17,161.77,73.79,162.45Zm-41.54-8.11v19.73c-2.35-.8-4.36-1.58-6.08-2.33V152.26Q29.05,153.35,32.25,154.35ZM263,121.69c0,.62-.76,1.81-2.9,3.32V106.2q1.5-.74,2.85-1.53C263,109.79,263,115.81,263,121.69Zm-9,6.62a86.31,86.31,0,0,1-9.88,3.56V112.05c3.54-1,6.85-2.06,9.88-3.22Zm-16,5.23c-2.62.67-5.5,1.33-8.66,2-23.94,5-55.84,7.68-89.83,7.68A551.27,551.27,0,0,1,79,140.05V119.8a591.32,591.32,0,0,0,60.57,3.2c27.3,0,69-2.31,98.49-9.37ZM72.91,139.32c-5.77-.74-11.27-1.57-16.46-2.51V116.72c5.32.9,10.85,1.69,16.46,2.38Zm-22.54-3.66-.64-.13c-4.69-1-8.75-2-12.28-2.95V112.72c4.06,1.06,8.39,2,12.92,2.91Zm-19-4.94c-2.35-.8-4.36-1.58-6.08-2.33V108.91Q28.17,110,31.37,111Zm-12.16-5.58c-2.28-1.58-3.08-2.81-3.08-3.45v-17q1.45.85,3.08,1.65ZM16.13,77.86v-17q1.45.85,3.08,1.65V81.31C16.93,79.73,16.13,78.5,16.13,77.86Zm9.16-12.78q2.88,1.09,6.08,2.08V86.89c-2.35-.8-4.36-1.58-6.08-2.33Zm12.16,3.81c4.06,1.06,8.39,2,12.92,2.9v20l-.64-.13c-4.69-1-8.75-2-12.27-2.95Zm19,4c5.32.9,10.85,1.69,16.46,2.38V95.49c-5.77-.74-11.27-1.57-16.46-2.51ZM79,76a591.32,591.32,0,0,0,60.57,3.2c27.3,0,69-2.31,98.49-9.37V89.71c-2.62.67-5.49,1.33-8.66,2-23.94,5-55.85,7.68-89.83,7.68A551.22,551.22,0,0,1,79,96.22Zm165.14-7.74c3.54-1,6.85-2.06,9.88-3.22V84.48A86.39,86.39,0,0,1,244.13,88Zm16-5.85q1.5-.74,2.85-1.53c0,5.12,0,11.14,0,17,0,.62-.76,1.81-2.9,3.32ZM49.73,33.68c23.94-5,55.84-7.68,89.83-7.68s65.89,2.73,89.83,7.68c27.42,5.67,33.6,12,33.6,13.84,0,0,0,0,0,0h-.13V48c-1,2.29-8.23,8.1-33.47,13.32-23.94,5-55.84,7.68-89.83,7.68S73.67,66.3,49.73,61.35c-27.42-5.67-33.6-12-33.6-13.84S22.3,39.35,49.73,33.68ZM16.16,91.18c24.35,14.18,86.8,18.33,123.4,18.33s99-4.16,123.4-18.33a.71.71,0,0,1,0,.17s0,0,0,0h-.13v.47c-1,2.29-8.23,8.1-33.47,13.32-23.94,5-55.84,7.68-89.83,7.68s-65.89-2.73-89.83-7.68c-27.42-5.67-33.6-12-33.6-13.84A.71.71,0,0,1,16.16,91.18ZM17,165V148q1.45.85,3.08,1.65v18.85C17.82,166.92,17,165.69,17,165Zm21.32,10.89V156.08c4.06,1.06,8.39,2,12.92,2.91v20l-.64-.13C45.92,177.91,41.86,176.92,38.33,175.93Zm102.11,10.63a551.31,551.31,0,0,1-60.57-3.16V163.15a591.37,591.37,0,0,0,60.57,3.2c27.3,0,69-2.31,98.49-9.37V176.9c-2.62.67-5.49,1.33-8.66,2C206.33,183.84,174.43,186.56,140.44,186.56ZM261,168.37V149.56q1.5-.74,2.85-1.53c0,5.12,0,11.14,0,17C263.87,165.67,263.11,166.85,261,168.37Z"/><path id="_ścieżka_" data-name="&lt;ścieżka&gt;" class="cls-1" d="M137.6,59.72h14.83l-.12-1.57c27.27-.55,41-3.09,38.64-6.31-5.2-7.22-68.94-7.06-66.45-12.67,1-2.26,10-4.08,24.46-3.89a233.76,233.76,0,0,1,23.74,1.65l3.78-2a250.39,250.39,0,0,0-26.14-1.79l-.15-1.85-8.8-.15-.27,2c-17.29.37-28.92,2.84-31.21,6-5.31,7.29,60.28,7,62.7,12.82,1.05,2.53-11.77,4.12-31.71,4.09a322.49,322.49,0,0,1-36.62-2.06l-10.55,2c11.76,1.48,27.56,2.22,44.07,2.3Z"/></g></svg>